<?xml version="1.0" standalone="no"?>
<!DOCTYPE svg PUBLIC "-//W3C//DTD SVG 20010904//EN"
 "http://www.w3.org/TR/2001/REC-SVG-20010904/DTD/svg10.dtd">
<svg version="1.0" xmlns="http://www.w3.org/2000/svg"
 width="201.000000pt" height="201.000000pt" viewBox="0 0 201.000000 201.000000"
 preserveAspectRatio="xMidYMid meet">
<metadata>
Created by potrace 1.14, written by Peter Selinger 2001-2017
</metadata>
<g transform="translate(0.000000,201.000000) scale(0.100000,-0.100000)"
fill="#000000" stroke="none">
<path d="M800 1991 c-216 -48 -384 -142 -533 -301 -118 -126 -196 -267 -245
-442 -25 -90 -25 -396 0 -486 102 -368 367 -632 736 -734 112 -31 372 -31 484
0 198 54 356 148 490 291 119 127 197 267 246 443 25 90 25 396 0 486 -102
368 -371 636 -736 734 -112 30 -328 34 -442 9z m365 -72 c83 -14 177 -45 260
-87 l69 -34 -27 -14 c-14 -8 -31 -23 -36 -32 -9 -17 -14 -16 -79 15 -117 56
-209 76 -357 76 -111 -1 -143 -4 -218 -27 -147 -44 -255 -105 -361 -205 -138
-131 -232 -317 -256 -508 l-9 -68 4 79 c3 50 1 84 -6 92 -9 11 -8 14 0 14 8 0
10 8 6 23 -5 17 -4 18 4 7 5 -8 13 -11 18 -7 4 5 1 12 -6 16 -11 7 -11 16 2
52 8 24 18 53 22 64 6 16 5 17 -4 5 -6 -8 -26 -58 -43 -110 -32 -93 -32 -99
-32 -270 0 -165 1 -180 28 -260 52 -156 119 -265 230 -375 179 -177 410 -264
671 -252 231 11 427 97 586 256 107 108 174 219 225 371 26 79 28 97 28 250 1
125 -3 180 -16 225 -20 73 -59 178 -64 173 -1 -2 8 -34 21 -71 29 -78 31 -100
8 -72 -14 18 -15 18 -9 2 3 -10 6 -26 6 -34 0 -13 2 -14 18 -2 15 12 16 12 5
-2 -10 -12 -10 -36 -2 -105 11 -96 6 -181 -17 -284 -16 -71 -44 -153 -51 -146
-2 2 2 19 10 38 53 126 65 348 27 493 -36 141 -106 269 -202 371 -46 48 -48
53 -36 79 9 20 9 34 1 56 l-11 29 45 -37 c114 -93 227 -274 279 -448 25 -82
28 -105 28 -250 0 -145 -3 -168 -28 -250 -107 -353 -371 -594 -730 -665 -76
-15 -256 -15 -332 0 -359 71 -623 312 -730 665 -25 82 -28 105 -28 250 0 145
3 168 28 250 93 309 313 539 606 633 150 48 293 58 455 31z m-83 -211 c2 -13
-1 -74 -6 -135 l-9 -113 -31 -1 c-32 -1 -90 2 -93 4 -1 1 -5 62 -9 135 l-7
132 75 0 c71 0 76 -2 80 -22z m158 -342 c0 -2 -8 -10 -17 -17 -16 -13 -17 -12
-4 4 13 16 21 21 21 13z m513 -73 c30 -67 27 -86 -15 -106 -21 -10 -84 -25
-140 -33 -68 -9 -120 -23 -151 -39 -27 -14 -54 -25 -61 -25 -17 0 -41 69 -28
82 6 6 35 14 64 19 31 5 92 28 148 57 52 27 110 53 129 57 24 5 30 10 20 16
-11 7 -11 9 2 9 9 0 23 -17 32 -37z m-88 13 c-22 -7 -79 -34 -128 -60 -56 -29
-99 -46 -120 -45 -30 1 -29 2 10 9 23 5 85 31 138 59 53 28 106 51 118 50 14
0 8 -5 -18 -13z m-1263 -42 c28 5 37 3 32 -5 -4 -7 0 -9 14 -5 23 8 52 -25 52
-60 0 -13 10 -25 25 -32 34 -16 32 -16 50 16 9 15 14 19 11 10 -3 -9 -11 -36
-17 -60 -10 -34 -14 -38 -17 -20 -2 13 -15 28 -28 34 -21 10 -28 8 -52 -15
-36 -35 -63 -34 -124 3 -27 17 -63 33 -79 37 -18 3 -29 12 -29 22 0 12 2 13 8
3 6 -9 13 1 21 29 7 22 15 48 18 58 4 14 3 14 -6 1 -12 -17 -14 -10 -5 14 5
13 12 11 46 -10 33 -21 48 -25 80 -20z m978 -68 c0 -2 -7 -6 -15 -10 -8 -3
-15 -1 -15 4 0 6 7 10 15 10 8 0 15 -2 15 -4z m-1221 -280 c1 -63 -6 -37 -12
44 -4 56 -3 65 3 35 5 -22 9 -58 9 -79z m68 -253 c17 -40 27 -71 23 -68 -20
12 -90 217 -89 260 0 11 8 -11 18 -50 10 -38 31 -103 48 -142z m553 17 c27
-22 30 -28 16 -27 -16 2 -39 -33 -112 -163 -51 -91 -95 -169 -97 -175 -5 -12
-39 6 -84 43 l-33 27 139 150 c104 112 137 153 129 163 -19 22 6 12 42 -18z
m726 -239 c-17 -27 -97 -72 -117 -66 -11 4 -26 2 -33 -4 -8 -6 -21 -9 -29 -5
-23 9 -78 95 -75 117 5 27 23 15 20 -13 -2 -17 8 -38 32 -65 32 -37 36 -39 51
-24 16 16 15 20 -21 68 -21 28 -42 51 -46 51 -4 0 -15 16 -24 35 -16 35 -16
37 6 60 13 13 41 33 62 44 l40 19 70 -103 c38 -57 67 -108 64 -114z m-1226
119 c6 -11 8 -20 6 -20 -3 0 -10 9 -16 20 -6 11 -8 20 -6 20 3 0 10 -9 16 -20z
m130 -166 c60 -65 59 -64 -16 11 -45 45 -87 92 -93 106 -8 16 -2 12 16 -11 15
-19 57 -67 93 -106z m1261 79 c-11 -16 -50 -57 -87 -93 -63 -61 -62 -59 17 27
46 50 85 92 87 92 2 1 -6 -11 -17 -26z m-1160 -170 c13 -16 12 -17 -3 -4 -17
13 -22 21 -14 21 2 0 10 -8 17 -17z m89 -59 c0 -2 -9 0 -20 6 -11 6 -20 13
-20 16 0 2 9 0 20 -6 11 -6 20 -13 20 -16z m155 -64 c13 -6 15 -9 5 -9 -8 0
-22 4 -30 9 -18 12 -2 12 25 0z m148 -37 c-7 -2 -19 -2 -25 0 -7 3 -2 5 12 5
14 0 19 -2 13 -5z m110 -10 c-7 -2 -19 -2 -25 0 -7 3 -2 5 12 5 14 0 19 -2 13
-5z"/>
<path d="M1775 1430 c9 -16 18 -30 21 -30 2 0 -2 14 -11 30 -9 17 -18 30 -21
30 -2 0 2 -13 11 -30z"/>
<path d="M210 1420 c-6 -11 -8 -20 -6 -20 3 0 10 9 16 20 6 11 8 20 6 20 -3 0
-10 -9 -16 -20z"/>
<path d="M727 650 c-8 -12 -65 -75 -127 -141 -62 -66 -111 -122 -108 -124 2
-3 52 47 111 110 133 141 162 175 148 175 -5 0 -16 -9 -24 -20z"/>
<path d="M1302 609 c-23 -17 -42 -35 -42 -41 0 -5 17 3 38 20 20 16 46 34 57
40 15 8 16 11 4 12 -8 0 -34 -14 -57 -31z"/>
</g>
</svg>
